<svg width="36" height="36" viewBox="0 0 36 36" fill="none" xmlns="http://www.w3.org/2000/svg">
<g filter="url(#filter0_di_475_21)">
<path d="M1.55149 12.6976C1.9094 6.71505 6.70869 1.72241 12.6978 1.49963C14.5457 1.43089 16.3893 1.38452 18.0002 1.38452C19.8248 1.38452 21.9481 1.44402 24.0381 1.52813C29.7155 1.75661 34.2434 6.28456 34.4719 11.962C34.556 14.052 34.6155 16.1752 34.6155 17.9999C34.6155 19.8246 34.556 21.9478 34.4719 24.0378C34.2434 29.7152 29.7155 34.2432 24.0381 34.4717C21.9481 34.5558 19.8248 34.6153 18.0002 34.6153C16.3893 34.6153 14.5457 34.5689 12.6978 34.5002C6.70869 34.2774 1.9094 29.2848 1.55149 23.3023C1.45537 21.6956 1.38477 19.9877 1.38477 17.9999C1.38477 16.0121 1.45537 14.3042 1.55149 12.6976Z" fill="#747264"/>
<path d="M12.701 1.58611C14.5484 1.51739 16.3908 1.47106 18.0002 1.47106C19.8232 1.47106 21.9452 1.53051 24.0346 1.6146C29.667 1.84127 34.1588 6.33311 34.3855 11.9655C34.4695 14.0549 34.529 16.1769 34.529 17.9999C34.529 19.8229 34.4695 21.9449 34.3855 24.0344C34.1588 29.6667 29.667 34.1585 24.0346 34.3852C21.9452 34.4693 19.8232 34.5288 18.0002 34.5288C16.3908 34.5288 14.5484 34.4824 12.701 34.4137C6.75934 34.1927 1.9933 29.2381 1.63788 23.2971C1.54183 21.6917 1.4713 19.9855 1.4713 17.9999C1.4713 16.0143 1.54183 14.3081 1.63788 12.7027C1.9933 6.76172 6.75934 1.80712 12.701 1.58611Z" stroke="#747264" stroke-width="0.173077"/>
</g>
<g filter="url(#filter1_d_475_21)">
<path d="M12 11.25C12 10.6533 12.2371 10.081 12.659 9.65901C13.081 9.23705 13.6533 9 14.25 9H21C21.5967 9 22.169 9.23705 22.591 9.65901C23.0129 10.081 23.25 10.6533 23.25 11.25V24.75C23.25 25.3467 23.0129 25.919 22.591 26.341C22.169 26.7629 21.5967 27 21 27H14.25C13.6533 27 13.081 26.7629 12.659 26.341C12.2371 25.919 12 25.3467 12 24.75V11.25ZM18.75 23.625C18.75 23.3266 18.6315 23.0405 18.4205 22.8295C18.2095 22.6185 17.9234 22.5 17.625 22.5C17.3266 22.5 17.0405 22.6185 16.8295 22.8295C16.6185 23.0405 16.5 23.3266 16.5 23.625C16.5 23.9234 16.6185 24.2095 16.8295 24.4205C17.0405 24.6315 17.3266 24.75 17.625 24.75C17.9234 24.75 18.2095 24.6315 18.4205 24.4205C18.6315 24.2095 18.75 23.9234 18.75 23.625Z" fill="#282721"/>
</g>
<defs>
<filter id="filter0_di_475_21" x="0.000150204" y="-9.39369e-05" width="36.0002" height="36.173" filterUnits="userSpaceOnUse" color-interpolation-filters="sRGB">
<feFlood flood-opacity="0" result="BackgroundImageFix"/>
<feColorMatrix in="SourceAlpha" type="matrix" values="0 0 0 0 0 0 0 0 0 0 0 0 0 0 0 0 0 0 127 0" result="hardAlpha"/>
<feMorphology radius="1.38462" operator="dilate" in="SourceAlpha" result="effect1_dropShadow_475_21"/>
<feOffset/>
<feComposite in2="hardAlpha" operator="out"/>
<feColorMatrix type="matrix" values="0 0 0 0 0.817026 0 0 0 0 0.817026 0 0 0 0 0.817026 0 0 0 0.25 0"/>
<feBlend mode="normal" in2="BackgroundImageFix" result="effect1_dropShadow_475_21"/>
<feBlend mode="normal" in="SourceGraphic" in2="effect1_dropShadow_475_21" result="shape"/>
<feColorMatrix in="SourceAlpha" type="matrix" values="0 0 0 0 0 0 0 0 0 0 0 0 0 0 0 0 0 0 127 0" result="hardAlpha"/>
<feMorphology radius="1.38462" operator="erode" in="SourceAlpha" result="effect2_innerShadow_475_21"/>
<feOffset dy="1.55769"/>
<feGaussianBlur stdDeviation="1.38462"/>
<feComposite in2="hardAlpha" operator="arithmetic" k2="-1" k3="1"/>
<feColorMatrix type="matrix" values="0 0 0 0 0 0 0 0 0 0 0 0 0 0 0 0 0 0 0.04 0"/>
<feBlend mode="normal" in2="shape" result="effect2_innerShadow_475_21"/>
</filter>
<filter id="filter1_d_475_21" x="7.5" y="6.5" width="20.25" height="27" filterUnits="userSpaceOnUse" color-interpolation-filters="sRGB">
<feFlood flood-opacity="0" result="BackgroundImageFix"/>
<feColorMatrix in="SourceAlpha" type="matrix" values="0 0 0 0 0 0 0 0 0 0 0 0 0 0 0 0 0 0 127 0" result="hardAlpha"/>
<feOffset dy="2"/>
<feGaussianBlur stdDeviation="2.25"/>
<feComposite in2="hardAlpha" operator="out"/>
<feColorMatrix type="matrix" values="0 0 0 0 0 0 0 0 0 0 0 0 0 0 0 0 0 0 0.14 0"/>
<feBlend mode="normal" in2="BackgroundImageFix" result="effect1_dropShadow_475_21"/>
<feBlend mode="normal" in="SourceGraphic" in2="effect1_dropShadow_475_21" result="shape"/>
</filter>
</defs>
</svg>
