<svg width="36" height="36" viewBox="0 0 36 36" fill="none" xmlns="http://www.w3.org/2000/svg">
<g filter="url(#filter0_di_478_130)">
<path d="M1.55149 12.6968C1.9094 6.71432 6.70869 1.72168 12.6978 1.4989C14.5457 1.43016 16.3893 1.38379 18.0002 1.38379C19.8248 1.38379 21.9481 1.44329 24.0381 1.5274C29.7155 1.75588 34.2434 6.28383 34.4719 11.9612C34.556 14.0512 34.6155 16.1745 34.6155 17.9992C34.6155 19.8238 34.556 21.9471 34.4719 24.0371C34.2434 29.7145 29.7155 34.2425 24.0381 34.471C21.9481 34.5551 19.8248 34.6146 18.0002 34.6146C16.3893 34.6146 14.5457 34.5682 12.6978 34.4994C6.70869 34.2767 1.9094 29.284 1.55149 23.3015C1.45537 21.6949 1.38477 19.9869 1.38477 17.9992C1.38477 16.0114 1.45537 14.3035 1.55149 12.6968Z" fill="#747264"/>
</g>
<path d="M26.3077 11H9.69231C9.5087 11 9.33261 11.0737 9.20277 11.205C9.07294 11.3363 9 11.5143 9 11.7V23.6C9 23.9713 9.14588 24.3274 9.40554 24.5899C9.66521 24.8525 10.0174 25 10.3846 25H25.6154C25.9826 25 26.3348 24.8525 26.5945 24.5899C26.8541 24.3274 27 23.9713 27 23.6V11.7C27 11.5143 26.9271 11.3363 26.7972 11.205C26.6674 11.0737 26.4913 11 26.3077 11ZM25.6154 23.6H10.3846V13.2916L17.5318 19.9162C17.6596 20.0348 17.8266 20.1006 18 20.1006C18.1734 20.1006 18.3404 20.0348 18.4682 19.9162L25.6154 13.2916V23.6Z" fill="#282721"/>
<defs>
<filter id="filter0_di_478_130" x="0.000150204" y="-0.000826359" width="36.0002" height="36.173" filterUnits="userSpaceOnUse" color-interpolation-filters="sRGB">
<feFlood flood-opacity="0" result="BackgroundImageFix"/>
<feColorMatrix in="SourceAlpha" type="matrix" values="0 0 0 0 0 0 0 0 0 0 0 0 0 0 0 0 0 0 127 0" result="hardAlpha"/>
<feMorphology radius="1.38462" operator="dilate" in="SourceAlpha" result="effect1_dropShadow_478_130"/>
<feOffset/>
<feComposite in2="hardAlpha" operator="out"/>
<feColorMatrix type="matrix" values="0 0 0 0 0.817026 0 0 0 0 0.817026 0 0 0 0 0.817026 0 0 0 0.25 0"/>
<feBlend mode="normal" in2="BackgroundImageFix" result="effect1_dropShadow_478_130"/>
<feBlend mode="normal" in="SourceGraphic" in2="effect1_dropShadow_478_130" result="shape"/>
<feColorMatrix in="SourceAlpha" type="matrix" values="0 0 0 0 0 0 0 0 0 0 0 0 0 0 0 0 0 0 127 0" result="hardAlpha"/>
<feMorphology radius="1.38462" operator="erode" in="SourceAlpha" result="effect2_innerShadow_478_130"/>
<feOffset dy="1.55769"/>
<feGaussianBlur stdDeviation="1.38462"/>
<feComposite in2="hardAlpha" operator="arithmetic" k2="-1" k3="1"/>
<feColorMatrix type="matrix" values="0 0 0 0 0 0 0 0 0 0 0 0 0 0 0 0 0 0 0.04 0"/>
<feBlend mode="normal" in2="shape" result="effect2_innerShadow_478_130"/>
</filter>
</defs>
</svg>
