<svg width="40" height="40" viewBox="0 0 40 40" fill="none" xmlns="http://www.w3.org/2000/svg">
<g id="customization">
<rect id="Rectangle 1535" width="40" height="40" rx="6" fill="#3C3633"/>
<path id="Vector" d="M33 18.9996V28.9996C33 30.3257 32.4732 31.5974 31.5355 32.5351C30.5979 33.4728 29.3261 33.9996 28 33.9996H21C20.7348 33.9996 20.4804 33.8942 20.2929 33.7067C20.1054 33.5192 20 33.2648 20 32.9996C20 32.7344 20.1054 32.48 20.2929 32.2925C20.4804 32.1049 20.7348 31.9996 21 31.9996H28C28.7956 31.9996 29.5587 31.6835 30.1213 31.1209C30.6839 30.5583 31 29.7952 31 28.9996H28C27.2044 28.9996 26.4413 28.6835 25.8787 28.1209C25.3161 27.5583 25 26.7952 25 25.9996V20.9996C25 20.2039 25.3161 19.4409 25.8787 18.8783C26.4413 18.3157 27.2044 17.9996 28 17.9996H30.9562C30.767 15.9208 29.9902 13.9387 28.7165 12.2849C27.4428 10.6311 25.7248 9.37385 23.7633 8.66C21.8017 7.94615 19.6775 7.80518 17.6388 8.25355C15.6001 8.70191 13.7311 9.72111 12.25 11.1921C10.4083 13.0095 9.2724 15.4222 9.045 17.9996H12C12.7956 17.9996 13.5587 18.3157 14.1213 18.8783C14.6839 19.4409 15 20.2039 15 20.9996V25.9996C15 26.7952 14.6839 27.5583 14.1213 28.1209C13.5587 28.6835 12.7956 28.9996 12 28.9996H10C9.20435 28.9996 8.44129 28.6835 7.87868 28.1209C7.31607 27.5583 7 26.7952 7 25.9996V18.9996C7.0028 16.4245 7.76953 13.9081 9.20313 11.7689C10.6367 9.62969 12.6728 7.96392 15.0535 6.9824C17.4342 6.00088 20.0526 5.74773 22.5773 6.255C25.102 6.76227 27.4194 8.00716 29.2362 9.83209C30.4358 11.0375 31.3857 12.4677 32.0316 14.0408C32.6774 15.6139 33.0065 17.2991 33 18.9996Z" fill="#DBC7B9"/>
</g>
</svg>
