<svg width="40" height="40" viewBox="0 0 40 40" fill="none" xmlns="http://www.w3.org/2000/svg">
<g id="improvement">
<rect id="Rectangle 1536" width="40" height="40" rx="6" fill="#3C3633"/>
<path id="Vector" d="M34.0006 12V20C34.0007 20.1979 33.9421 20.3914 33.8323 20.556C33.7224 20.7206 33.5662 20.8489 33.3833 20.9246C33.2005 21.0004 32.9993 21.0202 32.8053 20.9815C32.6112 20.9429 32.4329 20.8475 32.2931 20.7075L29.0006 17.4138L21.7081 24.7075C21.6152 24.8005 21.5049 24.8742 21.3835 24.9246C21.2621 24.9749 21.132 25.0008 21.0006 25.0008C20.8691 25.0008 20.739 24.9749 20.6176 24.9246C20.4962 24.8742 20.3859 24.8005 20.2931 24.7075L16.0006 20.4137L7.70806 28.7075C7.52042 28.8951 7.26592 29.0006 7.00056 29.0006C6.73519 29.0006 6.4807 28.8951 6.29306 28.7075C6.10542 28.5199 6 28.2654 6 28C6 27.7346 6.10542 27.4801 6.29306 27.2925L15.2931 18.2925C15.3859 18.1995 15.4962 18.1258 15.6176 18.0754C15.739 18.0251 15.8691 17.9992 16.0006 17.9992C16.132 17.9992 16.2621 18.0251 16.3835 18.0754C16.5049 18.1258 16.6152 18.1995 16.7081 18.2925L21.0006 22.5863L27.5868 16L24.2931 12.7075C24.153 12.5676 24.0577 12.3894 24.019 12.1953C23.9804 12.0012 24.0002 11.8 24.0759 11.6172C24.1517 11.4344 24.28 11.2782 24.4446 11.1683C24.6092 11.0584 24.8027 10.9998 25.0006 11H33.0006C33.2658 11 33.5201 11.1054 33.7077 11.2929C33.8952 11.4804 34.0006 11.7348 34.0006 12Z" fill="#DBC7B9"/>
</g>
</svg>
