<svg width="40" height="40" viewBox="0 0 40 40" fill="none" xmlns="http://www.w3.org/2000/svg">
<rect width="40" height="40" rx="6" fill="#3C3633"/>
<g filter="url(#filter0_d_455_35)">
<path d="M20.6648 10.0002C19.0518 9.99988 17.4836 10.5318 16.2035 11.5136C14.9233 12.4954 14.0026 13.8722 13.5841 15.4306C13.1655 16.9891 13.2725 18.6421 13.8884 20.1336C14.5044 21.625 15.5948 22.8716 16.9908 23.68C17.6004 24.0338 17.9815 24.576 17.9984 25.1227C18.0031 25.2691 18.0558 25.4099 18.1485 25.5233C18.2411 25.6368 18.3686 25.7165 18.5111 25.7502C18.8238 25.824 19.1419 25.8818 19.4653 25.9235C19.7523 25.96 19.9984 25.7298 19.9984 25.44V21.2969C19.7177 21.2661 19.4395 21.2153 19.1659 21.1449C19.0811 21.1231 19.0015 21.0848 18.9315 21.0322C18.8616 20.9796 18.8026 20.9137 18.7581 20.8383C18.7136 20.7629 18.6844 20.6794 18.6721 20.5927C18.6598 20.506 18.6647 20.4178 18.6866 20.333C18.7084 20.2482 18.7467 20.1685 18.7993 20.0985C18.8519 20.0285 18.9177 19.9696 18.9931 19.925C19.0685 19.8805 19.1519 19.8512 19.2385 19.839C19.3252 19.8267 19.4134 19.8316 19.4982 19.8534C20.2634 20.0507 21.0662 20.0507 21.8314 19.8534C21.917 19.8287 22.0067 19.8215 22.0952 19.8321C22.1837 19.8427 22.2691 19.8709 22.3465 19.9152C22.4239 19.9594 22.4916 20.0187 22.5456 20.0895C22.5997 20.1604 22.639 20.2414 22.6612 20.3277C22.6835 20.414 22.6882 20.504 22.675 20.5921C22.6619 20.6803 22.6313 20.7649 22.5849 20.8411C22.5385 20.9172 22.4773 20.9832 22.405 21.0352C22.3326 21.0873 22.2506 21.1243 22.1637 21.1441C21.8902 21.2147 21.612 21.2658 21.3312 21.2969V25.4391C21.3301 25.5073 21.3436 25.5749 21.3707 25.6374C21.3978 25.6999 21.4379 25.756 21.4883 25.8018C21.5388 25.8477 21.5984 25.8822 21.6632 25.9032C21.728 25.9242 21.7966 25.9311 21.8643 25.9235C22.1851 25.8822 22.5036 25.8244 22.8185 25.7502C22.961 25.7165 23.0885 25.6368 23.1811 25.5233C23.2738 25.4099 23.3265 25.2691 23.3312 25.1227C23.349 24.576 23.7293 24.0338 24.3388 23.68C25.7348 22.8716 26.8253 21.625 27.4412 20.1336C28.0571 18.6421 28.1641 16.9891 27.7455 15.4306C27.327 13.8722 26.4063 12.4954 25.1261 11.5136C23.846 10.5318 22.2778 9.99988 20.6648 10.0002Z" fill="#DBC7B9"/>
<path fill-rule="evenodd" clip-rule="evenodd" d="M18.0126 27.0228C18.0289 26.9368 18.062 26.8548 18.11 26.7816C18.158 26.7083 18.2199 26.6453 18.2923 26.596C18.3646 26.5467 18.446 26.5122 18.5317 26.4944C18.6174 26.4765 18.7058 26.4758 18.7918 26.4922C20.0305 26.7273 21.3025 26.7273 22.5413 26.4922C22.6283 26.473 22.7183 26.4715 22.8059 26.4877C22.8936 26.504 22.9771 26.5376 23.0515 26.5867C23.1259 26.6358 23.1897 26.6994 23.2391 26.7736C23.2885 26.8478 23.3225 26.9311 23.3392 27.0187C23.3558 27.1063 23.3547 27.1964 23.336 27.2835C23.3172 27.3707 23.2812 27.4532 23.23 27.5262C23.1788 27.5992 23.1134 27.6611 23.0379 27.7084C22.9623 27.7557 22.878 27.7873 22.79 27.8015C21.3869 28.0679 19.9462 28.0679 18.543 27.8015C18.3695 27.7685 18.2162 27.668 18.1167 27.522C18.0172 27.376 17.9798 27.1964 18.0126 27.0228ZM18.6709 29.1952C18.68 29.1081 18.7062 29.0237 18.7479 28.9467C18.7896 28.8698 18.8461 28.8018 18.9141 28.7466C18.982 28.6915 19.0602 28.6503 19.1441 28.6254C19.228 28.6005 19.316 28.5923 19.4031 28.6015C20.2431 28.6893 21.0899 28.6893 21.93 28.6015C22.017 28.5923 22.105 28.6005 22.1889 28.6254C22.2728 28.6503 22.351 28.6915 22.4189 28.7466C22.4869 28.8018 22.5434 28.8698 22.5851 28.9467C22.6268 29.0237 22.653 29.1081 22.6621 29.1952C22.6712 29.2823 22.6631 29.3703 22.6382 29.4543C22.6133 29.5382 22.5721 29.6164 22.517 29.6844C22.4618 29.7524 22.3939 29.8089 22.3169 29.8506C22.24 29.8924 22.1556 29.9185 22.0686 29.9277C21.1364 30.0253 20.1966 30.0253 19.2645 29.9277C19.1774 29.9186 19.093 29.8924 19.0161 29.8507C18.9391 29.8089 18.8712 29.7524 18.816 29.6844C18.7609 29.6164 18.7198 29.5382 18.6949 29.4543C18.67 29.3703 18.6618 29.2823 18.6709 29.1952Z" fill="#DBC7B9"/>
</g>
<defs>
<filter id="filter0_d_455_35" x="8.33301" y="7.22247" width="24.6636" height="30.0007" filterUnits="userSpaceOnUse" color-interpolation-filters="sRGB">
<feFlood flood-opacity="0" result="BackgroundImageFix"/>
<feColorMatrix in="SourceAlpha" type="matrix" values="0 0 0 0 0 0 0 0 0 0 0 0 0 0 0 0 0 0 127 0" result="hardAlpha"/>
<feOffset dy="2.22222"/>
<feGaussianBlur stdDeviation="2.5"/>
<feComposite in2="hardAlpha" operator="out"/>
<feColorMatrix type="matrix" values="0 0 0 0 0 0 0 0 0 0 0 0 0 0 0 0 0 0 0.14 0"/>
<feBlend mode="normal" in2="BackgroundImageFix" result="effect1_dropShadow_455_35"/>
<feBlend mode="normal" in="SourceGraphic" in2="effect1_dropShadow_455_35" result="shape"/>
</filter>
</defs>
</svg>
