<svg xmlns="http://www.w3.org/2000/svg" width="40" height="40" viewBox="0 0 40 40" fill="none">
  <rect width="40" height="40" rx="6" fill="#3C3633"/>
  <path d="M30.4259 13.9493C30.3073 14.0059 30.2011 14.0853 30.1133 14.183C30.0254 14.2807 29.9577 14.3947 29.9139 14.5186C29.8701 14.6424 29.8512 14.7737 29.8582 14.9049C29.8652 15.036 29.8979 15.1646 29.9546 15.2831C31.1284 17.7319 31.3559 20.5281 30.5933 23.1345C29.8308 25.7409 28.132 27.9735 25.8233 29.4035C23.5147 30.8335 20.7591 31.3599 18.0859 30.8817C15.4127 30.4034 13.0105 28.9542 11.3409 26.8125C9.67128 24.6708 8.85197 21.9876 9.04038 19.2785C9.2288 16.5695 10.4117 14.0256 12.3617 12.1356C14.3117 10.2456 16.8914 9.14289 19.605 9.0393C22.3187 8.9357 24.9749 9.83853 27.0634 11.5743L24.2171 14.4206C22.7997 13.3645 21.0352 12.8838 19.278 13.0749C17.5208 13.266 15.901 14.1148 14.7437 15.4508C13.5864 16.7869 12.9775 18.5113 13.0391 20.2778C13.1007 22.0443 13.8283 23.7221 15.0759 24.9743C16.0789 25.977 17.3629 26.6514 18.7578 26.9081C20.1527 27.1648 21.5926 26.9917 22.8869 26.4117C24.1813 25.8318 25.2689 24.8724 26.0058 23.6605C26.7426 22.4487 27.094 21.0416 27.0134 19.6256C27.006 19.4943 26.9728 19.3657 26.9157 19.2472C26.8586 19.1287 26.7788 19.0226 26.6807 18.9349C26.5826 18.8473 26.4682 18.7799 26.3441 18.7364C26.2199 18.693 26.0884 18.6744 25.9571 18.6818C25.8258 18.6892 25.6972 18.7224 25.5787 18.7795C25.4602 18.8366 25.3541 18.9164 25.2665 19.0145C25.1788 19.1126 25.1114 19.227 25.068 19.3511C25.0245 19.4753 25.006 19.6068 25.0134 19.7381C25.0669 20.6645 24.8616 21.5875 24.4203 22.4039C23.9791 23.2202 23.3194 23.8977 22.5151 24.3604C21.7108 24.8232 20.7935 25.053 19.866 25.0241C18.9385 24.9952 18.0373 24.7087 17.2634 24.1968L20.2571 21.2031L24.9759 16.4906L32.7334 8.74058C32.8263 8.64767 32.9 8.53737 32.9503 8.41597C33.0005 8.29458 33.0264 8.16447 33.0264 8.03308C33.0264 7.90168 33.0005 7.77157 32.9503 7.65018C32.9 7.52879 32.8263 7.41849 32.7334 7.32558C32.6405 7.23267 32.5301 7.15897 32.4088 7.10868C32.2874 7.0584 32.1573 7.03252 32.0259 7.03252C31.8945 7.03252 31.7644 7.0584 31.643 7.10868C31.5216 7.15897 31.4113 7.23267 31.3184 7.32558L28.4846 10.1506C25.9333 7.95283 22.6288 6.8308 19.2668 7.02071C15.9048 7.21062 12.7477 8.69767 10.4602 11.1687C8.17262 13.6398 6.93317 16.9021 7.00278 20.2688C7.07239 23.6354 8.44563 26.8437 10.8334 29.2181C13.0013 31.3899 15.8676 32.7248 18.9251 32.9866C21.9826 33.2483 25.0341 32.42 27.5397 30.6483C30.0452 28.8766 31.8432 26.2756 32.6155 23.3057C33.3879 20.3358 33.0847 17.1884 31.7596 14.4206C31.703 14.302 31.6236 14.1958 31.5259 14.108C31.4282 14.0201 31.3142 13.9524 31.1904 13.9086C31.0665 13.8649 30.9352 13.8459 30.8041 13.8529C30.6729 13.8599 30.5444 13.8927 30.4259 13.9493Z" fill="#DBC7B9"/>
</svg>