<svg width="20" height="16" viewBox="0 0 20 16" fill="none" xmlns="http://www.w3.org/2000/svg">
<path id="Vector" d="M18 0H2C0.899999 0 0.00999998 0.89998 0.00999998 1.99996L0 13.9997C0 15.0997 0.899999 15.9996 2 15.9996H18C19.1 15.9996 20 15.0997 20 13.9997V1.99996C20 0.89998 19.1 0 18 0ZM17.6 4.24991L10.53 8.66981C10.21 8.86981 9.78999 8.86981 9.46999 8.66981L2.4 4.24991C2.29973 4.19362 2.21192 4.11757 2.14189 4.02637C2.07186 3.93516 2.02106 3.83069 1.99257 3.71929C1.96409 3.60788 1.9585 3.49186 1.97616 3.37823C1.99381 3.26461 2.03433 3.15574 2.09528 3.05823C2.15623 2.96072 2.23632 2.87659 2.33072 2.81093C2.42513 2.74527 2.53187 2.69945 2.64449 2.67624C2.75712 2.65303 2.87328 2.65291 2.98595 2.67589C3.09862 2.69887 3.20546 2.74447 3.3 2.80994L9.99999 6.99985L16.7 2.80994C16.7945 2.74447 16.9014 2.69887 17.014 2.67589C17.1267 2.65291 17.2429 2.65303 17.3555 2.67624C17.4681 2.69945 17.5749 2.74527 17.6693 2.81093C17.7637 2.87659 17.8438 2.96072 17.9047 3.05823C17.9657 3.15574 18.0062 3.26461 18.0238 3.37823C18.0415 3.49186 18.0359 3.60788 18.0074 3.71929C17.9789 3.83069 17.9281 3.93516 17.8581 4.02637C17.7881 4.11757 17.7003 4.19362 17.6 4.24991Z" fill="#6EE7B7"/>
</svg>
