<svg width="32" height="31" viewBox="0 0 32 31" fill="none" xmlns="http://www.w3.org/2000/svg">
<g id="flask" filter="url(#filter0_d_446_44)">
<path id="Vector" opacity="0.2" d="M6.95406 17.1065C8.60781 16.8176 10.9541 16.9422 14.0003 18.3787C18.0316 20.2812 20.8441 19.8828 22.4378 19.27L24.8553 23.0249C24.9464 23.1662 24.9956 23.3275 24.998 23.4923C25.0004 23.6571 24.9559 23.8195 24.869 23.963C24.7821 24.1066 24.6559 24.226 24.5033 24.3093C24.3507 24.3926 24.1771 24.4366 24.0003 24.437H4.00031C3.82327 24.437 3.64939 24.3933 3.49644 24.3102C3.34348 24.2271 3.21694 24.1076 3.12973 23.964C3.04253 23.8204 2.99779 23.6578 3.00008 23.4928C3.00238 23.3278 3.05163 23.1664 3.14281 23.0249L6.95281 17.1065H6.95406Z" fill="black"/>
<path id="Vector_2" d="M9.00049 3H19.0005" stroke="black" stroke-width="2" stroke-linecap="round" stroke-linejoin="round"/>
<path id="Vector_3" d="M17.0003 3V10.8221L24.8566 23.0249C24.9477 23.1662 24.9969 23.3276 24.9993 23.4925C25.0016 23.6574 24.957 23.8199 24.8699 23.9635C24.7829 24.107 24.6565 24.2265 24.5037 24.3097C24.351 24.3928 24.1772 24.4367 24.0003 24.4369H4.00031C3.82327 24.4369 3.64939 24.3932 3.49644 24.3101C3.34348 24.227 3.21694 24.1076 3.12973 23.964C3.04253 23.8204 2.99779 23.6578 3.00008 23.4928C3.00238 23.3278 3.05163 23.1663 3.14281 23.0249L11.0003 10.8221V3" stroke="black" stroke-width="2" stroke-linecap="round" stroke-linejoin="round"/>
<path id="Vector_4" d="M6.9541 17.1065C8.60785 16.8176 10.9541 16.9422 14.0004 18.3787C18.0316 20.2813 20.8441 19.8828 22.4379 19.27" stroke="black" stroke-width="2" stroke-linecap="round" stroke-linejoin="round"/>
</g>
<defs>
<filter id="filter0_d_446_44" x="0.7" y="0.7" width="30.5993" height="30.0369" filterUnits="userSpaceOnUse" color-interpolation-filters="sRGB">
<feFlood flood-opacity="0" result="BackgroundImageFix"/>
<feColorMatrix in="SourceAlpha" type="matrix" values="0 0 0 0 0 0 0 0 0 0 0 0 0 0 0 0 0 0 127 0" result="hardAlpha"/>
<feOffset dx="2" dy="2"/>
<feGaussianBlur stdDeviation="1.65"/>
<feComposite in2="hardAlpha" operator="out"/>
<feColorMatrix type="matrix" values="0 0 0 0 0 0 0 0 0 0 0 0 0 0 0 0 0 0 0.5 0"/>
<feBlend mode="normal" in2="BackgroundImageFix" result="effect1_dropShadow_446_44"/>
<feBlend mode="normal" in="SourceGraphic" in2="effect1_dropShadow_446_44" result="shape"/>
</filter>
</defs>
</svg>
