<svg width="20" height="20" viewBox="0 0 20 20" fill="none" xmlns="http://www.w3.org/2000/svg">
<path id="Vector" d="M18.0404 13.6381L15.2125 13.3153C14.88 13.2762 14.5429 13.313 14.2267 13.4229C13.9104 13.5328 13.6232 13.713 13.3866 13.9499L11.338 15.9984C8.17742 14.391 5.60846 11.822 4.00102 8.66147L6.06073 6.60178C6.53947 6.12304 6.77327 5.45503 6.69534 4.77589L6.37246 1.97026C6.30934 1.42714 6.04869 0.926202 5.64014 0.562819C5.23159 0.199435 4.70367 -0.00101446 4.15689 -0.000364636H2.23079C0.972707 -0.000364636 -0.0738448 1.04618 0.00408987 2.30426C0.594166 11.8122 8.19836 19.4053 17.6953 19.9953C18.9533 20.0733 19.9999 19.0267 19.9999 17.7686V15.8426C20.011 14.7181 19.1649 13.7717 18.0404 13.6381Z" fill="#6EE7B7"/>
</svg>
