<svg width="20" height="20" viewBox="0 0 20 20" fill="none" xmlns="http://www.w3.org/2000/svg">
<path id="Vector" d="M10 -0.000549316C15.523 -0.000549316 20 4.47635 20 9.99923C20 15.5221 15.523 19.999 10 19.999C8.23279 20.0019 6.49667 19.5342 4.97001 18.644L0.00401406 19.999L1.35601 15.0311C0.465107 13.504 -0.00293837 11.7672 1.38802e-05 9.99923C1.38802e-05 4.47635 4.47701 -0.000549316 10 -0.000549316ZM6.59201 5.29933L6.39201 5.30733C6.26253 5.31522 6.13599 5.34923 6.02001 5.40733C5.91153 5.46876 5.81251 5.54555 5.72601 5.63533C5.60601 5.74832 5.53801 5.84632 5.46501 5.94132C5.09513 6.42221 4.89598 7.01261 4.89901 7.61928C4.90101 8.10927 5.02901 8.58626 5.22901 9.03225C5.63801 9.93423 6.31101 10.8892 7.19901 11.7742C7.41301 11.9872 7.62301 12.2012 7.84901 12.4002C8.9524 13.3716 10.2673 14.0722 11.689 14.4461L12.257 14.5331C12.442 14.5431 12.627 14.5291 12.813 14.5201C13.1042 14.5051 13.3886 14.4262 13.646 14.2891C13.777 14.2217 13.9048 14.1483 14.029 14.0691C14.029 14.0691 14.072 14.0411 14.154 13.9791C14.289 13.8791 14.372 13.8081 14.484 13.6912C14.567 13.6052 14.639 13.5042 14.694 13.3892C14.772 13.2262 14.85 12.9152 14.882 12.6562C14.906 12.4582 14.899 12.3502 14.896 12.2832C14.892 12.1762 14.803 12.0652 14.706 12.0182L14.124 11.7572C14.124 11.7572 13.254 11.3782 12.722 11.1362C12.6663 11.1119 12.6067 11.098 12.546 11.0952C12.4776 11.0882 12.4085 11.0959 12.3433 11.1178C12.2781 11.1397 12.2183 11.1753 12.168 11.2222C12.163 11.2202 12.096 11.2772 11.373 12.1532C11.3315 12.2089 11.2743 12.2511 11.2088 12.2742C11.1433 12.2974 11.0723 12.3005 11.005 12.2832C10.9399 12.2657 10.876 12.2437 10.814 12.2172C10.69 12.1652 10.647 12.1452 10.562 12.1092C9.98807 11.8587 9.45669 11.5203 8.98701 11.1062C8.86101 10.9962 8.74401 10.8762 8.62401 10.7602C8.23059 10.3835 7.88773 9.95724 7.60401 9.49224L7.54501 9.39724C7.50263 9.33341 7.46837 9.26455 7.44301 9.19225C7.40501 9.04525 7.50401 8.92726 7.50401 8.92726C7.50401 8.92726 7.74701 8.66126 7.86001 8.51726C7.97001 8.37727 8.06301 8.24127 8.12301 8.14427C8.24101 7.95428 8.27801 7.75928 8.21601 7.60828C7.93601 6.9243 7.64601 6.24331 7.34801 5.56733C7.28901 5.43333 7.11401 5.33733 6.95501 5.31833C6.90101 5.31233 6.84701 5.30633 6.79301 5.30233C6.65872 5.29566 6.52414 5.297 6.39001 5.30633L6.59101 5.29833L6.59201 5.29933Z" fill="#6EE7B7"/>
</svg>
